<svg xmlns="http://www.w3.org/2000/svg" x="0px" y="0px" width="500" height="500" viewBox="0 0 192 192" style=" fill:#000000;">
  <g
    fill="none"
    fill-rule="nonzero"
    stroke="none"
    stroke-width="1"
    stroke-linecap="butt"
    stroke-linejoin="miter"
    stroke-miterlimit="10"
    stroke-dasharray=""
    stroke-dashoffset="0"
    font-family="none"
    font-weight="none"
    font-size="none"
    text-anchor="none"
    style="mix-blend-mode: normal">
    <path d="M0,192v-192h192v192z" fill="none"></path>
    <g fill="#ffffff">
      <g id="surface1">
        <path
          d="M89.4,3.84c-6.93,0 -12.93,3.39 -17.16,8.28c-1.44,-0.345 -2.82,-0.84 -4.44,-0.84c-9.915,0 -17.97,7.14 -20.16,16.44c-2.49,-1.065 -5.16,-1.8 -8.04,-1.8c-11.565,0 -21,9.51 -21,21.12c0,0.66 0.165,1.17 0.24,1.8c-8.415,2.745 -14.76,10.335 -14.76,19.68c0,10.38 7.77,18.675 17.64,20.4c-1.575,2.835 -2.55,5.97 -2.88,9.36c-8.61,2.64 -15,10.32 -15,19.8c0,11.61 9.435,21.12 21,21.12c0.705,0 1.26,-0.165 1.92,-0.24c2.76,8.385 10.29,14.64 19.56,14.64c6.465,0 11.88,-3.285 15.72,-7.92c1.74,0.39 3.435,0.84 5.4,0.84c4.125,0 8.01,-0.99 11.52,-2.64c0.585,2.88 1.68,8.97 1.68,17.4c0,5.265 -1.53,7.395 -3.72,9c-2.19,1.605 -5.535,2.505 -9.24,3c-3.705,0.495 -7.455,0.465 -10.92,1.68c-1.725,0.615 -3.78,1.755 -4.8,3.96c-1.02,2.205 -0.645,4.65 0.24,6.84c0.42,1.41 1.59,2.445 3.03,2.7c1.44,0.24 2.895,-0.345 3.765,-1.53c0.855,-1.185 0.96,-2.76 0.285,-4.05c-0.135,-0.345 -0.09,-0.45 -0.12,-0.6c0.06,-0.03 0.03,0.03 0.12,0c1.425,-0.495 5.22,-0.885 9.36,-1.44c4.14,-0.555 8.82,-1.365 12.84,-4.32c4.02,-2.955 6.84,-8.205 6.84,-15.24c0,-7.065 -0.87,-13.14 -1.56,-17.16c0.315,0.03 0.645,0.12 0.96,0.12c4.155,0 7.875,-1.47 11.16,-3.48c2.685,2.295 5.91,4.095 9.6,4.44c-0.12,1.83 -0.165,2.925 -0.36,6.24c-0.3,5.295 -0.66,10.995 -0.6,13.8c0.135,6.405 2.055,11.1 5.28,14.04c3.225,2.94 7.275,3.9 10.68,4.32c3.405,0.42 6.45,0.405 8.04,0.72c0.615,0.12 0.66,0.225 0.72,0.24c0.06,2.115 1.845,3.78 3.96,3.72c2.115,-0.06 3.78,-1.845 3.72,-3.96c0,-2.01 -0.825,-4.23 -2.28,-5.52c-1.455,-1.29 -3.075,-1.74 -4.56,-2.04c-2.97,-0.6 -5.925,-0.495 -8.64,-0.84c-2.715,-0.345 -5.025,-0.945 -6.48,-2.28c-1.455,-1.335 -2.655,-3.615 -2.76,-8.64c-0.045,-1.875 0.18,-7.83 0.48,-13.08c0.255,-4.365 0.495,-7.065 0.6,-8.28c2.475,-1.26 4.62,-3.075 6.36,-5.28c2.31,0.675 4.665,1.44 7.2,1.44c4.725,0 9.03,-1.41 12.84,-3.6c0.03,0 0.075,0 0.12,0c3.705,5.97 9.9,10.32 17.4,10.32c11.565,0 21,-9.51 21,-21.12c0,-6.24 -3.135,-11.49 -7.44,-15.36c8.28,-2.835 14.4,-10.56 14.4,-19.8c0,-9.825 -6.87,-17.715 -15.96,-20.04c-1.905,-7.2 -7.38,-12.765 -14.52,-14.76c1.155,-2.58 2.04,-5.265 2.04,-8.28c0,-11.61 -9.435,-21.12 -21,-21.12c-3.855,0 -7.35,1.29 -10.44,3.12c-3.615,-6.33 -10.11,-10.8 -17.88,-10.8c-3.465,-8.415 -11.4,-14.52 -21,-14.52zM89.4,11.52c7.26,0 13.23,5.07 14.88,11.88c0.465,1.89 2.28,3.12 4.2,2.88c0.885,-0.12 1.545,-0.24 1.92,-0.24c6.075,0 11.085,4.11 12.72,9.72c0.375,1.29 1.41,2.295 2.7,2.64c1.305,0.345 2.7,-0.03 3.66,-0.96c2.415,-2.34 5.655,-3.72 9.24,-3.72c7.38,0 13.32,5.955 13.32,13.44c0,3.315 -1.23,6.255 -3.24,8.64c-1.005,1.155 -1.23,2.775 -0.57,4.155c0.645,1.38 2.04,2.25 3.57,2.205c0.255,-0.015 0.36,-0.105 0.48,-0.12c6.78,0 12.21,5.04 13.08,11.64c0.21,1.755 1.605,3.15 3.36,3.36c6.63,0.795 11.76,6.27 11.76,13.2c0,6.69 -4.755,12.24 -11.04,13.32c-1.8,0.285 -3.15,1.785 -3.24,3.6c-0.06,1.2 -0.195,2.22 -0.36,3.12c-0.3,1.545 0.36,3.105 1.68,3.96c3.585,2.415 6,6.465 6,11.16c0,7.485 -5.94,13.44 -13.32,13.44c-5.415,0 -10.035,-3.24 -12.12,-7.92c-0.63,-1.41 -2.055,-2.31 -3.6,-2.28c-0.885,0.015 -1.11,0 -0.6,0c-0.075,0 -0.525,-0.045 -1.56,-0.12c-0.84,-0.075 -1.695,0.135 -2.4,0.6c-2.94,1.935 -6.33,3 -10.08,3c-2.475,0 -4.905,-0.435 -7.08,-1.32c-1.8,-0.735 -3.855,-0.015 -4.8,1.68c-1.635,3.03 -4.65,5.16 -8.28,5.16c-3.045,0 -5.79,-1.545 -7.56,-3.84c-1.32,-1.665 -3.75,-1.92 -5.4,-0.6c-2.505,2.055 -5.61,3.36 -9,3.36c-2.04,0 -3.87,-0.54 -5.64,-1.32c-1.215,-0.525 -2.625,-0.39 -3.72,0.36c-3.165,2.04 -6.885,3.24 -10.92,3.24c-1.83,0 -3.615,-0.405 -5.52,-0.96c-1.65,-0.465 -3.42,0.21 -4.32,1.68c-2.37,3.825 -6.495,6.36 -11.28,6.36c-6.78,0 -12.345,-5.025 -13.2,-11.64c-0.135,-1.095 -0.75,-2.085 -1.665,-2.715c-0.915,-0.615 -2.055,-0.81 -3.135,-0.525c-1.23,0.345 -2.37,0.48 -3.48,0.48c-7.395,0 -13.32,-5.955 -13.32,-13.44c0,-6.795 4.98,-12.225 11.4,-13.2c1.935,-0.3 3.33,-2.01 3.24,-3.96c-0.015,-0.21 -0.105,-0.255 -0.12,-0.36c0,-0.21 -0.03,-0.3 0,-0.24c0.075,-4.845 2.19,-9.075 5.52,-12.12c1.275,-1.17 1.62,-3.045 0.84,-4.575c-0.795,-1.545 -2.505,-2.37 -4.2,-2.025c-1.035,0.24 -2.01,0.36 -3,0.36c-7.38,0 -13.44,-5.955 -13.44,-13.44c0,-6.915 5.145,-12.405 11.76,-13.2c1.095,-0.135 2.085,-0.75 2.715,-1.665c0.615,-0.915 0.81,-2.055 0.525,-3.135c-0.33,-1.245 -0.48,-2.385 -0.48,-3.48c0,-7.485 5.94,-13.44 13.32,-13.44c3.315,0 6.27,1.17 8.64,3.24c1.185,1.035 2.88,1.245 4.275,0.54c1.41,-0.72 2.235,-2.22 2.085,-3.78c-0.075,-0.78 -0.12,-1.185 -0.12,-1.2c0,-7.485 5.94,-13.44 13.32,-13.44c1.47,0 2.835,0.315 4.32,0.84c1.635,0.585 3.45,-0.015 4.44,-1.44c2.775,-4.14 7.515,-6.84 12.84,-6.84z"></path>
      </g>
    </g>
  </g>
</svg>
