<svg xmlns="http://www.w3.org/2000/svg" x="0px" y="0px"
width="500" height="500"
viewBox="0 0 192 192"
style=" fill:#000000;"><g fill="none" fill-rule="nonzero" stroke="none" stroke-width="1" stroke-linecap="butt" stroke-linejoin="miter" stroke-miterlimit="10" stroke-dasharray="" stroke-dashoffset="0" font-family="none" font-weight="none" font-size="none" text-anchor="none" style="mix-blend-mode: normal"><path d="M0,192v-192h192v192z" fill="none"></path><g fill="#ffffff"><g id="surface1"><path d="M82.56,0c-12.69,0 -24.21,2.445 -32.88,6.6c-8.67,4.155 -15.12,10.365 -15.12,18.36c0,0.12 0,0.24 0,0.36c-0.03,0.285 -0.03,0.555 0,0.84v132.84c0,10.5 6.855,19.365 16.44,25.2c1.065,0.645 2.385,0.735 3.54,0.24c1.14,-0.51 1.965,-1.53 2.22,-2.76l3.48,-16.8l3.96,22.8c0.285,1.485 1.41,2.655 2.88,3c5.04,1.26 10.29,1.68 15.48,1.68c12.975,0 24.75,-3.405 33.48,-9.24c8.73,-5.835 14.52,-14.34 14.52,-24.12v-36.12c0,-5.91 2.37,-11.85 6.6,-16.08l14.28,-11.64c0.045,-0.045 0.075,-0.075 0.12,-0.12c0,0 3.12,-2.865 4.56,-7.68c1.44,-4.815 1.17,-11.85 -3.96,-19.56c-0.675,-1.08 -1.845,-1.755 -3.12,-1.8h-10.8c-0.075,0 -0.165,0 -0.24,0c-3.93,0.24 -7.44,-2.94 -7.44,-6.84v-33c0.015,-0.165 0.015,-0.315 0,-0.48c0.015,-0.24 0,-0.465 0,-0.72c0,-7.995 -6.45,-14.205 -15.12,-18.36c-8.67,-4.155 -20.19,-6.6 -32.88,-6.6zM82.56,7.68c11.7,0 22.215,2.265 29.52,5.76c7.305,3.495 10.8,7.86 10.8,11.52c0,3.66 -3.495,8.025 -10.8,11.52c-2.745,1.305 -5.94,2.445 -9.48,3.36c-0.36,-0.015 -0.735,0.03 -1.08,0.12c-23.415,3.72 -36.84,-1.83 -41.16,-7.2c-2.16,-2.685 -2.325,-4.905 -1.32,-7.2c1.005,-2.295 3.675,-4.89 8.88,-6.48c2.085,-0.435 3.435,-2.475 3,-4.56c-0.435,-2.085 -2.475,-3.435 -4.56,-3c-0.24,0.015 -0.48,0.06 -0.72,0.12c-6.705,2.055 -11.52,5.88 -13.68,10.8c-2.04,4.65 -1.23,10.05 1.92,14.4c-0.27,-0.12 -0.57,-0.225 -0.84,-0.36c-7.305,-3.495 -10.8,-7.86 -10.8,-11.52c0,-3.66 3.495,-8.025 10.8,-11.52c7.305,-3.495 17.82,-5.76 29.52,-5.76zM92.16,15.36c-4.755,0 -9.12,0.9 -12.6,2.64c-3.48,1.74 -6.6,4.68 -6.6,8.88c0,4.2 3.12,7.14 6.6,8.88c3.48,1.74 7.845,2.64 12.6,2.64c4.755,0 9.12,-0.9 12.6,-2.64c3.48,-1.74 6.6,-4.68 6.6,-8.88c0,-4.2 -3.12,-7.14 -6.6,-8.88c-3.48,-1.74 -7.845,-2.64 -12.6,-2.64zM92.16,23.04c3.72,0 7.035,0.765 9.12,1.8c2.085,1.035 2.4,1.995 2.4,2.04c0,0.045 -0.315,1.005 -2.4,2.04c-2.085,1.035 -5.4,1.8 -9.12,1.8c-3.72,0 -7.035,-0.765 -9.12,-1.8c-2.085,-1.035 -2.4,-1.995 -2.4,-2.04c0,-0.045 0.315,-1.005 2.4,-2.04c2.085,-1.035 5.4,-1.8 9.12,-1.8zM42.24,38.76c2.175,1.725 4.68,3.24 7.44,4.56c8.67,4.155 20.19,6.6 32.88,6.6c12.69,0 24.21,-2.445 32.88,-6.6c2.76,-1.32 5.265,-2.835 7.44,-4.56v20.4c0,8.295 7.11,14.895 15.36,14.52c0.075,0 0.165,0 0.24,0h8.04c2.85,5.085 3.045,8.85 2.28,11.4c-0.825,2.76 -2.19,3.99 -2.28,4.08l-0.12,0.12l-14.4,11.76c-0.135,0.105 -0.255,0.225 -0.36,0.36c-5.76,5.76 -8.76,13.575 -8.76,21.48v36.12c0,6.735 -3.945,12.945 -11.16,17.76c-7.215,4.815 -17.55,7.92 -29.16,7.92c-3.96,0 -7.695,-0.525 -11.28,-1.2l-6.84,-39.72c-0.3,-1.83 -1.875,-3.195 -3.735,-3.225c-1.86,-0.03 -3.465,1.275 -3.825,3.105l-6.36,30c-4.905,-4.305 -8.28,-9.165 -8.28,-14.64zM60.84,72.96c-2.085,0.315 -3.525,2.235 -3.24,4.32c0.48,3.72 -0.165,6.57 -0.72,9.72c-0.555,3.15 -0.96,7.125 1.2,10.92c1.065,1.86 3.42,2.505 5.28,1.44c1.86,-1.065 2.505,-3.42 1.44,-5.28c-0.9,-1.59 -0.75,-2.865 -0.24,-5.76c0.51,-2.895 1.38,-6.9 0.72,-12c-0.12,-1.05 -0.66,-1.995 -1.5,-2.64c-0.84,-0.63 -1.905,-0.885 -2.94,-0.72zM99.36,111.24c-0.165,0.03 -0.33,0.075 -0.48,0.12c-1.935,0.48 -3.18,2.355 -2.88,4.32c0.69,5.685 -0.21,9.855 -0.96,14.16c-0.75,4.305 -1.245,9.15 1.44,14.04c0.54,1.38 1.815,2.34 3.3,2.445c1.485,0.105 2.895,-0.645 3.63,-1.935c0.72,-1.305 0.645,-2.895 -0.21,-4.11c-1.53,-2.79 -1.29,-5.085 -0.6,-9.12c0.69,-4.035 1.92,-9.45 1.08,-16.44c-0.09,-1.05 -0.6,-2.01 -1.41,-2.655c-0.825,-0.66 -1.875,-0.96 -2.91,-0.825z"></path></g></g></g></svg>
